<?xml version="1.0" encoding="UTF-8" standalone="no"?>
<svg
   xmlns:dc="http://purl.org/dc/elements/1.1/"
   xmlns:cc="http://creativecommons.org/ns#"
   xmlns:rdf="http://www.w3.org/1999/02/22-rdf-syntax-ns#"
   xmlns:svg="http://www.w3.org/2000/svg"
   xmlns="http://www.w3.org/2000/svg"
   xmlns:sodipodi="http://sodipodi.sourceforge.net/DTD/sodipodi-0.dtd"
   xmlns:inkscape="http://www.inkscape.org/namespaces/inkscape"
   viewBox="0 0 260 95"
   preserveAspectRatio="xMidYMid meet"
   version="1.1"
   id="svg3753"
   sodipodi:docname="squidguardreports.svg"
   inkscape:version="0.92.4 (5da689c313, 2019-01-14)">
  <metadata
     id="metadata3757">
    <rdf:RDF>
      <cc:Work
         rdf:about="">
        <dc:format>image/svg+xml</dc:format>
        <dc:type
           rdf:resource="http://purl.org/dc/dcmitype/StillImage" />
        <dc:title></dc:title>
      </cc:Work>
    </rdf:RDF>
  </metadata>
  <sodipodi:namedview
     pagecolor="#ffffff"
     bordercolor="#666666"
     borderopacity="1"
     objecttolerance="10"
     gridtolerance="10"
     guidetolerance="10"
     inkscape:pageopacity="0"
     inkscape:pageshadow="2"
     inkscape:window-width="1563"
     inkscape:window-height="782"
     id="namedview3755"
     showgrid="false"
     inkscape:zoom="4.5615385"
     inkscape:cx="130"
     inkscape:cy="47.5"
     inkscape:window-x="104"
     inkscape:window-y="104"
     inkscape:window-maximized="0"
     inkscape:current-layer="svg3753" />
  <defs
     id="SvgjsDefs2428" />
  <g
     id="SvgjsG2429"
     featurekey="root"
     fill="#ffffff" />
  <g
     id="SvgjsG2430"
     featurekey="symbol1"
     fill="#0d6db6"
     transform="matrix(0.8158062696456909,0,0,0.8158062696456909,4.209687699171447,6.551943913320587)">
    <title
       id="title3738">Artboard 188</title>
    <path
       d="M84.21,57.77h0a2.24,2.24,0,0,0-1.56,2c-.05.92,1,1.75,2.45,1.45l.37-.08a10,10,0,0,0,7.3-9.38l.11-3.41A44.41,44.41,0,0,0,91,34.08,42.69,42.69,0,0,0,45.38,4.51,43.14,43.14,0,0,0,7.25,44.11l-.15,3.7,0,3.41a12.53,12.53,0,0,0,.78,4.58,11.41,11.41,0,0,0,6.75,6.6,12.12,12.12,0,0,0,4.54.67L26,63l6.52-.15c-.46,3.17-.85,6.33-1.11,9.5-.17,2-.29,4-.37,6L31,79.8a7.18,7.18,0,0,1-.12.81,4.86,4.86,0,0,1-6.57,3.31,5.48,5.48,0,0,1-2.8-2.53,6,6,0,0,1-.65-2.18l-.45-3h0c-.06-.25-.84-.45-1.77-.45s-1.71.2-1.77.45v.07l-.46,3A10.3,10.3,0,0,0,21.25,89.6,11,11,0,0,0,29.53,91a11.29,11.29,0,0,0,8.58-9,12.25,12.25,0,0,0,.17-2.18l-.05-1.51c-.09-2-.21-4-.38-6-.26-3.18-.65-6.35-1.12-9.52l11.73-.27a80.33,80.33,0,0,0,.42,33h0c.06.18.83.32,1.77.32s1.71-.14,1.77-.32v-.06a80.4,80.4,0,0,0,.38-33c4-.11,7.91-.25,11.86-.37-.52,3.44-1,6.89-1.23,10.33-.17,2-.29,4-.37,6L63,79.87a12.27,12.27,0,0,0,.19,2.18,11.31,11.31,0,0,0,8.66,9,11.11,11.11,0,0,0,8.27-1.45A10.57,10.57,0,0,0,84.77,83a10.31,10.31,0,0,0,.1-3.77l-.45-3h0c-.06-.25-.84-.45-1.77-.45s-1.71.2-1.77.45v.07l-.46,3a6,6,0,0,1-.66,2.15,5.41,5.41,0,0,1-2.82,2.5,4.85,4.85,0,0,1-6.53-3.36,6.86,6.86,0,0,1-.12-.81l0-1.5c-.09-2-.21-4-.38-6-.28-3.46-.71-6.92-1.24-10.38,4-.13,8-.24,12-.38a1.75,1.75,0,1,0,0-3.45H80.3Q53,57,25.71,56.54l-6.82-.11a4.63,4.63,0,0,1-3.59-1.57,4.68,4.68,0,0,1-1-1.68,5.78,5.78,0,0,1-.18-.94l0-.48v-.85l.05-3.39.19-3.11A36.89,36.89,0,0,1,70.45,16.8,37.76,37.76,0,0,1,86.12,36a41.26,41.26,0,0,1,2.3,12.61l.1,3.33a6,6,0,0,1-4.31,5.8Z"
       id="path3740" />
    <path
       d="M32.76,38a7.19,7.19,0,0,0-.11,1.72,7.38,7.38,0,0,0,.11,1.73h0a9.83,9.83,0,0,0,11.77,0h0a7.86,7.86,0,0,0,.11-1.77A8,8,0,0,0,44.54,38h0A9.81,9.81,0,0,0,32.76,38Z"
       id="path3742" />
    <path
       d="M56.76,38a7.19,7.19,0,0,0-.11,1.72,7.38,7.38,0,0,0,.11,1.73h0a9.83,9.83,0,0,0,11.77,0h0a7.86,7.86,0,0,0,.11-1.77A8,8,0,0,0,68.54,38h0A9.81,9.81,0,0,0,56.76,38Z"
       id="path3744" />
  </g>
  <g
     id="SvgjsG2431"
     featurekey="text1"
     fill="#292929"
     transform="matrix(1.002819299697876,0,0,1.002819299697876,99.22046466032742,18.64667385550436)">
    <path
       d="M0.81339 22.7798 l0.5761 -0.91508 c0.11864 -0.18661 0.22034 -0.23746 0.38983 -0.15271 c0.016949 0.033898 1.0508 0.64407 2.1864 0.64407 c0.98305 0 1.322 -0.38983 1.322 -0.77966 c0 -0.57627 -0.62712 -0.77949 -1.7627 -1.0676 c-1.6102 -0.42373 -2.678 -1.2542 -2.678 -2.5424 c0 -1.2712 1.0847 -2.4576 3.1186 -2.4576 c1.2373 0 2.0847 0.42373 2.7627 0.81356 c0.16949 0.10169 0.25424 0.25424 0.15254 0.38983 l-0.62712 0.9661 c-0.084746 0.13559 -0.22034 0.18644 -0.37288 0.13559 c-0.44068 -0.22017 -1.1525 -0.54237 -1.9153 -0.54237 c-0.94915 0 -1.2034 0.47458 -1.2034 0.76271 c0 0.49153 0.71186 0.72881 1.5763 0.96593 c1.5086 0.40678 3.0171 1.1356 3.0171 2.6102 c0 1.4237 -1.3558 2.5083 -3.3898 2.5083 c-1.3898 0 -2.6441 -0.6778 -3.0678 -1.0168 c-0.11864 -0.067797 -0.15254 -0.23729 -0.084746 -0.32203 z M17.18624406779661 28.6271 c0.033898 0.18644 -0.033732 0.35593 -0.18627 0.35593 l-1.1525 0 c-0.39 0 -0.66119 -0.25424 -0.66119 -0.61017 l0 -4.9659 c-0.59322 0.40678 -1.3729 0.71169 -2.2881 0.71169 c-2.3898 0 -3.9322 -1.932 -3.9322 -4.4066 c0 -2.5424 1.8983 -4.1695 3.8814 -4.1695 c1.0339 0 1.7966 0.30508 2.3729 0.66102 c0.084746 -0.37288 0.54237 -0.59322 0.86441 -0.59322 l0.69492 0 c0.13559 0 0.25424 0.11881 0.25424 0.27119 l0 11.644 c0 0.52542 0.10169 0.79661 0.15254 1.1017 z M13.20334406779661 22.4068 c0.81356 0 1.4575 -0.25424 1.9829 -0.55932 l0 -3.9322 c-0.59322 -0.38983 -1.288 -0.66102 -2.0507 -0.66102 c-1.0678 0 -2.3559 0.72881 -2.3559 2.4576 c0 1.678 1.0339 2.6949 2.4237 2.6949 z M26.762698305084747 15.6102 c0.15254 0 0.25424 0.11881 0.25424 0.28831 l0 7.8305 c0 0.15238 -0.10169 0.27102 -0.23729 0.27102 l-1.0508 0 c-0.28814 0 -0.52542 -0.42356 -0.54237 -0.71169 l0 -0.18644 c-0.66102 0.50847 -1.5593 0.99983 -2.7119 0.99983 c-1.7458 0 -3.4915 -1.1015 -3.4915 -3.2202 l0 -3.7458 c0 -0.45763 -0.033898 -0.81356 -0.084746 -1.1695 c-0.033898 -0.18644 0.016949 -0.35593 0.16949 -0.35593 l1.1017 0 c0.42373 0 0.66102 0.28814 0.66102 0.67797 l0 4.4237 c0 1.1186 0.76271 1.7458 1.8983 1.7458 c0.9661 0 1.7627 -0.54237 2.4576 -1.2373 l0 -5.322 c0 -0.16949 0.10169 -0.28831 0.25407 -0.28831 l1.3222 0 z M30.15235254237288 12.492 c-0.55915 0 -1.0168 -0.44068 -1.0168 -1.0169 c0 -0.55932 0.45763 -1.0169 1.0168 -1.0169 c0.55932 0 1.0169 0.45763 1.0169 1.0169 c0 0.57627 -0.45763 1.0169 -1.0169 1.0169 z M30.813352542372883 15.6102 l-1.3051 0 c-0.16949 0 -0.27119 0.11881 -0.27119 0.27119 l0 7.4407 c0 0.38983 0.23729 0.6778 0.64407 0.6778 l0.94915 0 c0.15254 0 0.25424 -0.10153 0.25424 -0.28797 l0 -7.8305 c0 -0.15238 -0.11864 -0.27119 -0.27119 -0.27119 z M40.54233220338983 10.441 c0.38983 0 0.64424 0.25458 0.64424 0.61051 l0 12.678 c0 0.15238 -0.11864 0.27102 -0.25424 0.27102 l-0.69492 0 c-0.33898 0 -0.79661 -0.22017 -0.88119 -0.62695 c-0.59356 0.42373 -1.3902 0.74542 -2.3393 0.74542 c-2.3898 0 -3.9831 -1.932 -3.9831 -4.4066 c0 -2.5424 1.9492 -4.1695 3.9322 -4.1695 c1.0508 0 1.7964 0.3222 2.39 0.67797 l0 -4.322 c0 -0.52542 -0.10186 -0.79661 -0.15271 -1.1017 c-0.033898 -0.18661 0.033898 -0.3561 0.18644 -0.3561 l1.1525 0 z M34.847632203389836 19.7124 c0 1.678 1.0847 2.6949 2.4746 2.6949 c0.83051 0 1.4915 -0.27119 2.0339 -0.57627 l0 -3.8814 c-0.62712 -0.40678 -1.322 -0.69492 -2.1017 -0.69492 c-1.0678 0 -2.4068 0.72881 -2.4068 2.4576 z M54.677389830508474 17.9663 c0.20339 0 0.28847 0.10203 0.28847 0.28847 l0 3.5085 c0 0.084746 -0.050847 0.16949 -0.11864 0.23712 c-1.2542 1.3222 -2.9661 2.1186 -5 2.1186 c-3.7627 0 -6.8814 -3.0168 -6.8814 -6.8642 s3.1186 -6.9322 6.8814 -6.9322 c2 0 3.7625 0.79661 5.0337 2.1356 c0.15254 0.15238 0.15254 0.30492 0.016949 0.40661 l-1.0847 0.88119 c-0.13559 0.11881 -0.25424 0.11881 -0.38983 -0.016784 c-0.72881 -0.76271 -1.9831 -1.5593 -3.5085 -1.5593 c-3.0508 0 -5.0339 2.5424 -5.0339 5.0847 c0 2.5593 1.9831 5.0169 5.0339 5.0169 c1.322 0 2.4068 -0.57627 3.1525 -1.2203 l0 -1.2542 l-3.1017 0 c-0.18644 0 -0.28831 -0.084746 -0.28831 -0.27119 l0 -1.2544 c0 -0.20339 0.084746 -0.30508 0.27119 -0.30508 l4.7288 0 z M64.50846101694916 15.6102 c0.15254 0 0.25424 0.11881 0.25424 0.28831 l0 7.8305 c0 0.15238 -0.10169 0.27102 -0.23729 0.27102 l-1.0508 0 c-0.28814 0 -0.52542 -0.42356 -0.54237 -0.71169 l0 -0.18644 c-0.66102 0.50847 -1.5593 0.99983 -2.7119 0.99983 c-1.7458 0 -3.4915 -1.1015 -3.4915 -3.2202 l0 -3.7458 c0 -0.45763 -0.033898 -0.81356 -0.084746 -1.1695 c-0.033898 -0.18644 0.016949 -0.35593 0.16949 -0.35593 l1.1017 0 c0.42373 0 0.66102 0.28814 0.66102 0.67797 l0 4.4237 c0 1.1186 0.76271 1.7458 1.8983 1.7458 c0.9661 0 1.7627 -0.54237 2.4576 -1.2373 l0 -5.322 c0 -0.16949 0.10169 -0.28831 0.25407 -0.28831 l1.3222 0 z M73.93201525423729 23.62712 c-0.22034 -1.661 -0.2368 -3.2032 -0.16916 -4.8302 c0.084746 -2 -1.0169 -3.2881 -3.0847 -3.2881 c-1.3559 0 -2.7627 0.40678 -3.5932 0.86441 c-0.15254 0.084746 -0.25424 0.23712 -0.18644 0.38966 l0.42373 0.98305 c0.067797 0.16949 0.18644 0.22034 0.40678 0.11864 c1.0847 -0.49153 1.9661 -0.72881 2.8305 -0.72881 c0.91525 0 1.4576 0.35593 1.4237 1.322 c-3.1356 0.5422 -5.5254 1.1015 -5.5254 3.3049 c0 1.4746 1.0678 2.3219 2.7966 2.3219 c1.4408 0 2.1864 -0.44051 2.8983 -0.98288 c0.08458 0.50847 0.23712 0.89831 0.5761 0.89831 l1.0169 0 c0.15238 0 0.20322 -0.18644 0.18627 -0.37288 z M69.57641525423729 22.627299999999998 c-0.69492 0 -1.2373 -0.23729 -1.2373 -0.88136 c0 -1.0339 1.8981 -1.3729 3.6102 -1.7288 c-0.016949 0.55932 -0.016949 1.3051 0 1.7966 c-0.55932 0.42373 -1.5085 0.81356 -2.3729 0.81356 z M81.81340677966101 16.0341 c0.18644 0.11864 0.23729 0.22017 0.11848 0.40661 l-0.69475 1.0169 c-0.084746 0.11864 -0.20339 0.15254 -0.35593 0.11864 c-0.35593 -0.16949 -0.66102 -0.32203 -1.2203 -0.32203 s-1.4407 0.23729 -1.9153 1.2881 l0 5.1866 c0 0.15238 -0.10169 0.27102 -0.25424 0.27102 l-1.339 0 c-0.15254 0 -0.25424 -0.11864 -0.25424 -0.27102 l0 -7.8476 c0 -0.15238 0.11864 -0.27119 0.25424 -0.27119 l0.9322 0 c0.40678 0 0.66102 0.42373 0.66102 0.72881 l0 0.11881 c0.59322 -0.54237 1.3051 -0.91525 2.2373 -0.91525 c0.86441 0 1.5085 0.27119 1.8305 0.49153 z M90.54233220338983 10.441 c0.38983 0 0.64424 0.25458 0.64424 0.61051 l0 12.678 c0 0.15238 -0.11864 0.27102 -0.25424 0.27102 l-0.69492 0 c-0.33898 0 -0.79661 -0.22017 -0.88119 -0.62695 c-0.59356 0.42373 -1.3902 0.74542 -2.3393 0.74542 c-2.3898 0 -3.9831 -1.932 -3.9831 -4.4066 c0 -2.5424 1.9492 -4.1695 3.9322 -4.1695 c1.0508 0 1.7964 0.3222 2.39 0.67797 l0 -4.322 c0 -0.52542 -0.10186 -0.79661 -0.15271 -1.1017 c-0.033898 -0.18661 0.033898 -0.3561 0.18644 -0.3561 l1.1525 0 z M84.84763220338982 19.7124 c0 1.678 1.0847 2.6949 2.4746 2.6949 c0.83051 0 1.4915 -0.27119 2.0339 -0.57627 l0 -3.8814 c-0.62712 -0.40678 -1.322 -0.69492 -2.1017 -0.69492 c-1.0678 0 -2.4068 0.72881 -2.4068 2.4576 z  M108.05040677966102 23.67797 c0.11864 0.16949 0.034064 0.32203 -0.1861 0.32203 l-1.2544 0 c-0.37288 0 -0.67814 -0.33881 -0.81356 -0.5422 l-2.6441 -3.8983 l-3.3559 0 l0 4.1525 c0 0.18644 -0.10169 0.28797 -0.27119 0.28797 l-1.3729 0 c-0.16949 0 -0.27119 -0.10153 -0.27119 -0.28797 l0 -13 c0 -0.15254 0.10169 -0.27119 0.27119 -0.27119 l5.2203 0 c2.9659 0 4.5592 2.5254 4.5592 4.5592 c0 1.6949 -1.0168 3.5934 -2.9322 4.2881 z M99.79680677966101 12.288 l0 5.4237 l3.3559 0 c1.9153 0 2.8644 -1.3729 2.8644 -2.7458 c0 -1.3559 -0.9661 -2.678 -2.8644 -2.678 l-3.3559 0 z M116.71185762711865 20.4915 c0.61 0 1.0336 -0.30508 1.0336 -1.0169 c0 -2.0847 -1.6102 -3.9831 -4.0847 -3.9831 c-2.3559 0 -4.2034 1.8644 -4.2034 4.3051 c0 2.5422 1.9322 4.288 4.3051 4.288 c1.5085 0 2.6949 -0.61017 3.4237 -1.5932 c0.10186 -0.13559 0.067963 -0.23729 -0.033568 -0.37288 l-0.32203 -0.42373 c-0.13559 -0.16933 -0.27119 -0.15254 -0.44085 -0.050847 c-0.5422 0.44068 -1.4405 0.81373 -2.4236 0.81373 c-1.3898 0 -2.3729 -0.84746 -2.5593 -1.9661 l5.3051 0 z M111.40665762711865 19.0508 c0.067797 -0.81356 0.83051 -1.8644 2.2203 -1.8644 c1.4068 0 2.1356 1.0678 2.1864 1.8644 l-4.4068 0 z M123.72868135593221 15.5256 c1.9831 0 3.8814 1.6271 3.8814 4.1695 c0 2.4746 -1.5424 4.4064 -3.9322 4.4064 c-0.91525 0 -1.6949 -0.30475 -2.2881 -0.71153 l0 4.8303 c0 0.49153 -0.52542 0.76271 -0.89831 0.76271 l-0.67797 0 c-0.15254 0 -0.27119 -0.11864 -0.27119 -0.27119 l0 -11.644 c0 -0.52542 -0.084746 -0.79661 -0.13559 -1.1017 c-0.033732 -0.18644 0.017115 -0.35593 0.18661 -0.35593 l1.1525 0 c0.37288 0 0.62729 0.23729 0.64407 0.57627 c0.57627 -0.35593 1.3219 -0.66102 2.3388 -0.66102 z M123.38968135593221 22.3902 c1.3729 0 2.4068 -1.0169 2.4068 -2.6949 c0 -1.7288 -1.2712 -2.4576 -2.339 -2.4576 c-0.76271 0 -1.4576 0.27119 -2.0678 0.66102 l0 3.9322 c0.54237 0.30508 1.1864 0.55932 2 0.55932 z M133.47442711864406 24.11864 c2.3729 0 4.339 -1.8812 4.339 -4.3049 c0 -2.4746 -1.9661 -4.322 -4.339 -4.322 s-4.339 1.8475 -4.339 4.322 c0 2.4237 1.9661 4.3049 4.339 4.3049 z M133.47442711864406 22.39 c-1.4576 0 -2.5424 -1.2034 -2.5424 -2.5593 c0 -1.4068 1.0847 -2.6102 2.5424 -2.6102 s2.5424 1.2034 2.5424 2.6102 c0 1.3559 -1.0847 2.5593 -2.5424 2.5593 z M145.44052542372881 16.0341 c0.18644 0.11864 0.23729 0.22017 0.11848 0.40661 l-0.69475 1.0169 c-0.084746 0.11864 -0.20339 0.15254 -0.35593 0.11864 c-0.35593 -0.16949 -0.66102 -0.32203 -1.2203 -0.32203 s-1.4407 0.23729 -1.9153 1.2881 l0 5.1866 c0 0.15238 -0.10169 0.27102 -0.25424 0.27102 l-1.339 0 c-0.15254 0 -0.25424 -0.11864 -0.25424 -0.27102 l0 -7.8476 c0 -0.15238 0.11864 -0.27119 0.25424 -0.27119 l0.9322 0 c0.40678 0 0.66102 0.42373 0.66102 0.72881 l0 0.11881 c0.59322 -0.54237 1.3051 -0.91525 2.2373 -0.91525 c0.86441 0 1.5085 0.27119 1.8305 0.49153 z M152.1184508474576 23.4578 c0.050847 0.13559 -0.050681 0.22 -0.16933 0.30475 c-0.28814 0.18644 -0.91525 0.32203 -1.5424 0.32203 c-1.8136 0 -2.4746 -0.9322 -2.4746 -3.1186 l0 -3.5763 l-1 0 c-0.15254 0 -0.27119 -0.10169 -0.27119 -0.27119 l0 -0.28814 c0 -0.13559 0.033898 -0.23712 0.13559 -0.33898 c0.98305 -0.79661 1.7627 -1.6269 2.4407 -3.339 c0.050847 -0.11864 0.10169 -0.18644 0.18644 -0.18644 l0.18644 0 c0.13559 0 0.18644 0.067797 0.18644 0.22034 l0 2.4237 l1.7797 0 c0.15254 0 0.28814 0.11881 0.28814 0.28831 l0 1.2203 c0 0.15254 -0.13559 0.27119 -0.28814 0.27119 l-1.4746 0 c-0.13559 0 -0.25424 -0.016949 -0.32203 -0.050847 l0 3.4576 c0 0.98305 0.11864 1.5424 0.94915 1.5424 c0.35593 0 0.59322 -0.050847 0.79661 -0.10169 s0.33898 0.033898 0.37288 0.22051 z M153.62694932203388 22.7798 l0.5761 -0.91508 c0.11864 -0.18661 0.22034 -0.23746 0.38983 -0.15271 c0.016949 0.033898 1.0508 0.64407 2.1864 0.64407 c0.98305 0 1.322 -0.38983 1.322 -0.77966 c0 -0.57627 -0.62712 -0.77949 -1.7627 -1.0676 c-1.6102 -0.42373 -2.678 -1.2542 -2.678 -2.5424 c0 -1.2712 1.0847 -2.4576 3.1186 -2.4576 c1.2373 0 2.0847 0.42373 2.7627 0.81356 c0.16949 0.10169 0.25424 0.25424 0.15254 0.38983 l-0.62712 0.9661 c-0.084746 0.13559 -0.22034 0.18644 -0.37288 0.13559 c-0.44068 -0.22017 -1.1525 -0.54237 -1.9153 -0.54237 c-0.94915 0 -1.2034 0.47458 -1.2034 0.76271 c0 0.49153 0.71186 0.72881 1.5763 0.96593 c1.5086 0.40678 3.0171 1.1356 3.0171 2.6102 c0 1.4237 -1.3558 2.5083 -3.3898 2.5083 c-1.3898 0 -2.6441 -0.6778 -3.0678 -1.0168 c-0.11864 -0.067797 -0.15254 -0.23729 -0.084746 -0.32203 z"
       id="path3747" />
  </g>
  <g
     id="SvgjsG2432"
     featurekey="text3"
     fill="#292929"
     transform="matrix(0.5864987373352051,0,0,0.5864987373352051,98.94384405532595,57.25185408853109)">
    <path
       d="M9.42 23.14 c-0.24 -0.46 -0.38 -1.12 -0.38 -2.3 c0 -1.02 -0.52 -1.66 -1.14 -2.12 c-0.62 -0.44 -1.36 -0.66 -1.62 -0.7 c-0.06 -0.02 -0.08 -0.04 -0.1 -0.04 l-3.4 0 l0 5.54 c0 0.26 -0.22 0.48 -0.5 0.48 c-0.26 0 -0.48 -0.22 -0.48 -0.48 l0 -13.04 c0 -0.24 0.2 -0.46 0.44 -0.48 l0.04 0 l0.06 0 l3.9 0 c2.2 0 3.98 1.78 3.98 4 c0 1.6 -0.94 2.98 -2.3 3.62 c0.06 0.04 0.12 0.06 0.2 0.1 c0.92 0.52 1.88 1.54 1.88 3.12 c0 0.82 0.08 1.32 0.18 1.62 c0.08 0.24 0.18 0.32 0.2 0.34 c0.22 -0.02 0.46 0.1 0.54 0.32 c0.06 0.26 -0.06 0.54 -0.32 0.64 c-0.02 0 -0.12 0.02 -0.24 0.02 l-0.04 0 c-0.26 0 -0.68 -0.2 -0.9 -0.64 z M9.26 14 c0 -1.68 -1.36 -3.02 -3.02 -3.02 l-3.46 0 l0 6.04 l3.36 0 l0.18 0 c1.62 -0.04 2.94 -1.38 2.94 -3.02 z M21.92 23.14 c-0.24 -0.46 -0.38 -1.12 -0.38 -2.3 c0 -1.02 -0.52 -1.66 -1.14 -2.12 c-0.62 -0.44 -1.36 -0.66 -1.62 -0.7 c-0.06 -0.02 -0.08 -0.04 -0.1 -0.04 l-3.4 0 l0 5.54 c0 0.26 -0.22 0.48 -0.5 0.48 c-0.26 0 -0.48 -0.22 -0.48 -0.48 l0 -13.04 c0 -0.24 0.2 -0.46 0.44 -0.48 l0.04 0 l0.06 0 l3.9 0 c2.2 0 3.98 1.78 3.98 4 c0 1.6 -0.94 2.98 -2.3 3.62 c0.06 0.04 0.12 0.06 0.2 0.1 c0.92 0.52 1.88 1.54 1.88 3.12 c0 0.82 0.08 1.32 0.18 1.62 c0.08 0.24 0.18 0.32 0.2 0.34 c0.22 -0.02 0.46 0.1 0.54 0.32 c0.06 0.26 -0.06 0.54 -0.32 0.64 c-0.02 0 -0.12 0.02 -0.24 0.02 l-0.04 0 c-0.26 0 -0.68 -0.2 -0.9 -0.64 z M21.759999999999998 14 c0 -1.68 -1.36 -3.02 -3.02 -3.02 l-3.46 0 l0 6.04 l3.36 0 l0.18 0 c1.62 -0.04 2.94 -1.38 2.94 -3.02 z M26.46 16.94 c0 -3.98 3.26 -7.12 7.28 -7.14 l0 0 c1.72 0 3.3 0.6 4.52 1.54 l0 0 c0.22 0.18 0.26 0.52 0.08 0.7 l0 0 c-0.16 0.24 -0.48 0.26 -0.68 0.1 l0 0 c-1.08 -0.84 -2.44 -1.36 -3.92 -1.36 l0 0 c-3.5 0 -6.3 2.74 -6.3 6.16 l0 0 c0 3.34 2.8 6.08 6.3 6.08 l0 0 c1.48 0 2.84 -0.48 3.88 -1.36 l0 0 c0.24 -0.16 0.56 -0.12 0.7 0.12 l0 0 c0.2 0.18 0.16 0.54 -0.06 0.7 l0 0 c-1.22 0.94 -2.8 1.52 -4.52 1.52 l0 0 c-4.02 0 -7.28 -3.16 -7.28 -7.06 l0 0 z M41.480000000000004 23.86 c-0.18 -0.22 -0.18 -0.52 0.02 -0.72 l6.54 -5.9 c0.78 -0.72 1.2 -1.68 1.2 -2.68 c0 -0.86 -0.32 -1.72 -0.94 -2.4 c-0.7 -0.78 -1.68 -1.18 -2.66 -1.18 c-0.88 0 -1.74 0.3 -2.44 0.92 l-0.68 0.62 c-0.2 0.2 -0.52 0.18 -0.68 -0.02 c-0.2 -0.2 -0.18 -0.52 0.02 -0.68 l0.68 -0.64 c0.88 -0.78 2 -1.18 3.1 -1.18 c1.22 0 2.46 0.48 3.36 1.5 c0.82 0.88 1.2 1.98 1.2 3.06 c0 1.24 -0.5 2.48 -1.5 3.4 l-5.6 5.06 l6.62 0 c0.26 0 0.48 0.22 0.48 0.5 c0 0.26 -0.22 0.48 -0.48 0.48 l-7.8 0 l-0.08 0 c-0.14 0 -0.28 -0.04 -0.36 -0.14 z M53.72 22 c-0.18 -0.16 -0.2 -0.44 -0.06 -0.62 l0 0 c0.16 -0.2 0.44 -0.22 0.62 -0.06 l0 0 c1.04 0.84 2.78 1.82 4.6 1.8 l0 0 c1.22 0 2.32 -0.36 3.08 -0.92 l0 0 c0.78 -0.56 1.2 -1.3 1.2 -2.08 l0 0 c0 -0.8 -0.38 -1.4 -1.14 -1.92 l0 0 c-0.76 -0.5 -1.88 -0.88 -3.24 -1.14 l0 0 l-0.04 0 c-1.3 -0.24 -2.44 -0.6 -3.3 -1.18 l0 0 c-0.86 -0.56 -1.44 -1.4 -1.44 -2.44 l0 0 c0 -1.06 0.58 -1.98 1.46 -2.62 l0 0 c0.88 -0.64 2.06 -1.02 3.38 -1.02 l0 0 c1.84 0 3.22 0.9 4.32 1.62 l0 0 c0.2 0.14 0.26 0.4 0.12 0.62 l0 0 c-0.12 0.2 -0.4 0.26 -0.6 0.12 l0 0 c-1.1 -0.72 -2.3 -1.48 -3.84 -1.48 l0 0 c-1.14 0 -2.16 0.34 -2.86 0.84 l0 0 c-0.7 0.52 -1.1 1.2 -1.1 1.92 l0 0 c0.02 0.7 0.34 1.22 1.04 1.7 l0 0 c0.7 0.48 1.74 0.82 3 1.06 l0 0 l0.04 0 c1.4 0.26 2.64 0.66 3.56 1.28 l0 0 c0.92 0.6 1.54 1.52 1.54 2.64 l0 0 c0 1.12 -0.64 2.12 -1.58 2.8 l0 0 c-0.94 0.68 -2.2 1.1 -3.6 1.1 l0 0 c-2.14 -0.02 -4 -1.1 -5.16 -2.02 l0 0 z M67.02 16.9 c0.02 -3.92 2.98 -7.1 6.76 -7.1 l0 0 c3.74 0 6.68 3.18 6.7 7.1 l0 0 c-0.02 3.92 -2.96 7.1 -6.7 7.1 l0 0 c-3.78 0 -6.74 -3.18 -6.76 -7.1 l0 0 z M68 16.9 c0 3.42 2.6 6.12 5.78 6.12 l0 0 c3.08 0 5.68 -2.7 5.7 -6.12 l0 0 c-0.02 -3.46 -2.62 -6.1 -5.7 -6.1 l0 0 c-3.18 0 -5.78 2.64 -5.78 6.1 l0 0 z M84.64 23.52 l0 -13.04 c0 -0.26 0.2 -0.46 0.46 -0.48 l0.08 0 l7.16 0 c0.26 0 0.48 0.22 0.48 0.48 c0 0.28 -0.22 0.5 -0.48 0.5 l-6.72 0 l0 5.54 l5.88 0 c0.28 0 0.5 0.22 0.5 0.5 c0 0.26 -0.22 0.48 -0.5 0.48 l-5.88 0 l0 6.02 c0 0.26 -0.22 0.48 -0.5 0.48 c-0.26 0 -0.48 -0.22 -0.48 -0.48 z M100.36 23.52 l0 -12.54 l-4.22 0 c-0.26 0 -0.48 -0.22 -0.48 -0.5 c0 -0.26 0.22 -0.48 0.48 -0.48 l9.4 0 c0.26 0 0.48 0.22 0.48 0.48 c0 0.28 -0.22 0.5 -0.48 0.5 l-4.22 0 l0 12.54 c0 0.26 -0.22 0.48 -0.48 0.48 s-0.48 -0.22 -0.48 -0.48 z M109.18 10.12 c0.24 -0.12 0.54 0 0.64 0.24 l5 11.9 l3.56 -8.42 c0.1 -0.18 0.28 -0.3 0.46 -0.3 c0.22 0 0.4 0.12 0.5 0.3 l3.54 8.42 l5 -11.9 c0.12 -0.24 0.38 -0.36 0.66 -0.24 c0.24 0.1 0.36 0.4 0.24 0.64 l-5.44 12.92 c-0.08 0.18 -0.26 0.3 -0.4 0.32 l-0.04 0 l-0.06 0 c-0.08 0 -0.16 -0.02 -0.24 -0.08 c-0.02 -0.02 -0.06 -0.04 -0.08 -0.08 c-0.02 -0.02 -0.06 -0.08 -0.08 -0.12 c0 -0.02 0 -0.04 -0.02 -0.06 l-3.56 -8.46 l-3.58 8.46 c0 0.04 -0.02 0.08 -0.04 0.1 c-0.02 0.06 -0.06 0.1 -0.1 0.14 c-0.02 0 -0.04 0.02 -0.04 0.02 c-0.08 0.06 -0.18 0.08 -0.28 0.08 c-0.12 0 -0.22 -0.04 -0.3 -0.1 l-0.04 -0.04 l-0.02 -0.02 c-0.06 -0.06 -0.1 -0.14 -0.12 -0.24 l-5.4 -12.84 c-0.12 -0.24 0 -0.54 0.24 -0.64 z M140.64 23.68 l-1.24 -3.3 l-6.38 0 l-1.24 3.3 c-0.08 0.2 -0.26 0.32 -0.46 0.32 c-0.04 0 -0.12 -0.02 -0.18 -0.02 c-0.24 -0.1 -0.38 -0.4 -0.28 -0.64 l4.86 -12.98 c0.08 -0.18 0.28 -0.3 0.48 -0.3 c0.22 0 0.42 0.12 0.48 0.3 l4.86 12.98 c0.1 0.24 -0.02 0.54 -0.26 0.64 c-0.08 0 -0.12 0.02 -0.18 0.02 c-0.18 0 -0.38 -0.12 -0.46 -0.32 z M136.22 11.88 l-2.84 7.52 l5.66 0 z M151.99999999999997 23.14 c-0.24 -0.46 -0.38 -1.12 -0.38 -2.3 c0 -1.02 -0.52 -1.66 -1.14 -2.12 c-0.62 -0.44 -1.36 -0.66 -1.62 -0.7 c-0.06 -0.02 -0.08 -0.04 -0.1 -0.04 l-3.4 0 l0 5.54 c0 0.26 -0.22 0.48 -0.5 0.48 c-0.26 0 -0.48 -0.22 -0.48 -0.48 l0 -13.04 c0 -0.24 0.2 -0.46 0.44 -0.48 l0.04 0 l0.06 0 l3.9 0 c2.2 0 3.98 1.78 3.98 4 c0 1.6 -0.94 2.98 -2.3 3.62 c0.06 0.04 0.12 0.06 0.2 0.1 c0.92 0.52 1.88 1.54 1.88 3.12 c0 0.82 0.08 1.32 0.18 1.62 c0.08 0.24 0.18 0.32 0.2 0.34 c0.22 -0.02 0.46 0.1 0.54 0.32 c0.06 0.26 -0.06 0.54 -0.32 0.64 c-0.02 0 -0.12 0.02 -0.24 0.02 l-0.04 0 c-0.26 0 -0.68 -0.2 -0.9 -0.64 z M151.83999999999997 14 c0 -1.68 -1.36 -3.02 -3.02 -3.02 l-3.46 0 l0 6.04 l3.36 0 l0.18 0 c1.62 -0.04 2.94 -1.38 2.94 -3.02 z M157.16 23.52 l0 -13.04 c0 -0.26 0.22 -0.48 0.48 -0.48 l0.04 0 l7.16 0 c0.28 0 0.48 0.22 0.48 0.48 c0 0.28 -0.2 0.5 -0.48 0.5 l-6.7 0 l0 5.54 l5.86 0 c0.26 0 0.48 0.22 0.48 0.5 c0 0.26 -0.22 0.48 -0.48 0.48 l-5.86 0 l0 5.52 l6.7 0 c0.28 0 0.48 0.22 0.48 0.5 c0 0.26 -0.2 0.48 -0.48 0.48 l-7.14 0 l-0.06 0 l-0.04 0 c-0.24 -0.02 -0.44 -0.22 -0.44 -0.48 z"
       id="path3750" />
  </g>
</svg>
