<?xml version="1.0" encoding="UTF-8" standalone="no"?>
<!-- Created with Inkscape (http://www.inkscape.org/) -->

<svg
   xmlns:dc="http://purl.org/dc/elements/1.1/"
   xmlns:cc="http://creativecommons.org/ns#"
   xmlns:rdf="http://www.w3.org/1999/02/22-rdf-syntax-ns#"
   xmlns:svg="http://www.w3.org/2000/svg"
   xmlns="http://www.w3.org/2000/svg"
   xmlns:sodipodi="http://sodipodi.sourceforge.net/DTD/sodipodi-0.dtd"
   xmlns:inkscape="http://www.inkscape.org/namespaces/inkscape"
   width="25.135416mm"
   height="25.135416mm"
   viewBox="0 0 25.135416 25.135416"
   version="1.1"
   id="svg3809"
   inkscape:version="0.92.4 (5da689c313, 2019-01-14)"
   sodipodi:docname="logo.rounded.svg">
  <defs
     id="defs3803" />
  <sodipodi:namedview
     id="base"
     pagecolor="#ffffff"
     bordercolor="#666666"
     borderopacity="1.0"
     inkscape:pageopacity="0.0"
     inkscape:pageshadow="2"
     inkscape:zoom="3.959798"
     inkscape:cx="61.27721"
     inkscape:cy="67.856038"
     inkscape:document-units="mm"
     inkscape:current-layer="layer2"
     showgrid="true"
     inkscape:window-width="1280"
     inkscape:window-height="961"
     inkscape:window-x="-8"
     inkscape:window-y="-8"
     inkscape:window-maximized="1"
     showguides="false">
    <inkscape:grid
       type="xygrid"
       id="grid859"
       originx="5.2916664"
       originy="1.322916" />
  </sodipodi:namedview>
  <metadata
     id="metadata3806">
    <rdf:RDF>
      <cc:Work
         rdf:about="">
        <dc:format>image/svg+xml</dc:format>
        <dc:type
           rdf:resource="http://purl.org/dc/dcmitype/StillImage" />
        <dc:title />
      </cc:Work>
    </rdf:RDF>
  </metadata>
  <g
     inkscape:groupmode="layer"
     id="layer2"
     inkscape:label="Capa 2"
     style="display:inline"
     transform="translate(5.2916665,4.0379887)">
    <rect
       style="opacity:1;fill:#0d6db6;fill-opacity:1;fill-rule:evenodd;stroke:none;stroke-width:0.22266702;stroke-opacity:1"
       id="rect851"
       width="25.135416"
       height="25.135416"
       x="-5.2916665"
       y="-4.0379887"
       rx="1.3229166"
       ry="1.3229166"
       inkscape:export-filename="C:\Users\ramon.roman.c\Desktop\rect851.png"
       inkscape:export-xdpi="258.69"
       inkscape:export-ydpi="258.69"
       inkscape:label="rect851" />
  </g>
  <g
     inkscape:label="Capa 1"
     inkscape:groupmode="layer"
     id="layer1"
     transform="translate(-70.114613,-83.503326)"
     style="display:inline">
    <g
       style="fill:#ffffff;fill-opacity:1"
       id="SvgjsG2430"
       featurekey="symbol1"
       transform="matrix(0.21584874,0,0,0.21584874,71.889837,85.271347)">
      <title
         id="title3738">Artboard 188</title>
      <path
         inkscape:connector-curvature="0"
         d="m 84.21,57.77 v 0 a 2.24,2.24 0 0 0 -1.56,2 c -0.05,0.92 1,1.75 2.45,1.45 l 0.37,-0.08 a 10,10 0 0 0 7.3,-9.38 l 0.11,-3.41 A 44.41,44.41 0 0 0 91,34.08 42.69,42.69 0 0 0 45.38,4.51 43.14,43.14 0 0 0 7.25,44.11 l -0.15,3.7 v 3.41 a 12.53,12.53 0 0 0 0.78,4.58 11.41,11.41 0 0 0 6.75,6.6 12.12,12.12 0 0 0 4.54,0.67 L 26,63 32.52,62.85 c -0.46,3.17 -0.85,6.33 -1.11,9.5 -0.17,2 -0.29,4 -0.37,6 L 31,79.8 a 7.18,7.18 0 0 1 -0.12,0.81 4.86,4.86 0 0 1 -6.57,3.31 5.48,5.48 0 0 1 -2.8,-2.53 6,6 0 0 1 -0.65,-2.18 l -0.45,-3 v 0 c -0.06,-0.25 -0.84,-0.45 -1.77,-0.45 -0.93,0 -1.71,0.2 -1.77,0.45 v 0.07 l -0.46,3 a 10.3,10.3 0 0 0 4.84,10.32 11,11 0 0 0 8.28,1.4 11.29,11.29 0 0 0 8.58,-9 12.25,12.25 0 0 0 0.17,-2.18 l -0.05,-1.51 c -0.09,-2 -0.21,-4 -0.38,-6 -0.26,-3.18 -0.65,-6.35 -1.12,-9.52 l 11.73,-0.27 a 80.33,80.33 0 0 0 0.42,33 v 0 c 0.06,0.18 0.83,0.32 1.77,0.32 0.94,0 1.71,-0.14 1.77,-0.32 v -0.06 a 80.4,80.4 0 0 0 0.38,-33 c 4,-0.11 7.91,-0.25 11.86,-0.37 -0.52,3.44 -1,6.89 -1.23,10.33 -0.17,2 -0.29,4 -0.37,6 L 63,79.87 a 12.27,12.27 0 0 0 0.19,2.18 11.31,11.31 0 0 0 8.66,9 11.11,11.11 0 0 0 8.27,-1.45 10.57,10.57 0 0 0 4.65,-6.6 10.31,10.31 0 0 0 0.1,-3.77 l -0.45,-3 v 0 c -0.06,-0.25 -0.84,-0.45 -1.77,-0.45 -0.93,0 -1.71,0.2 -1.77,0.45 v 0.07 l -0.46,3 a 6,6 0 0 1 -0.66,2.15 5.41,5.41 0 0 1 -2.82,2.5 4.85,4.85 0 0 1 -6.53,-3.36 6.86,6.86 0 0 1 -0.12,-0.81 v -1.5 c -0.09,-2 -0.21,-4 -0.38,-6 -0.28,-3.46 -0.71,-6.92 -1.24,-10.38 4,-0.13 8,-0.24 12,-0.38 a 1.75,1.75 0 1 0 0,-3.45 H 80.3 Q 53,57 25.71,56.54 l -6.82,-0.11 a 4.63,4.63 0 0 1 -3.59,-1.57 4.68,4.68 0 0 1 -1,-1.68 5.78,5.78 0 0 1 -0.18,-0.94 v -0.48 -0.85 l 0.05,-3.39 0.19,-3.11 A 36.89,36.89 0 0 1 70.45,16.8 37.76,37.76 0 0 1 86.12,36 a 41.26,41.26 0 0 1 2.3,12.61 l 0.1,3.33 a 6,6 0 0 1 -4.31,5.8 z"
         id="path3740"
         style="fill:#ffffff;fill-opacity:1" />
      <path
         inkscape:connector-curvature="0"
         d="m 32.76,38 a 7.19,7.19 0 0 0 -0.11,1.72 7.38,7.38 0 0 0 0.11,1.73 v 0 a 9.83,9.83 0 0 0 11.77,0 v 0 A 7.86,7.86 0 0 0 44.64,39.68 8,8 0 0 0 44.54,38 v 0 a 9.81,9.81 0 0 0 -11.78,0 z"
         id="path3742"
         style="fill:#ffffff;fill-opacity:1" />
      <path
         inkscape:connector-curvature="0"
         d="m 56.76,38 a 7.19,7.19 0 0 0 -0.11,1.72 7.38,7.38 0 0 0 0.11,1.73 v 0 a 9.83,9.83 0 0 0 11.77,0 v 0 A 7.86,7.86 0 0 0 68.64,39.68 8,8 0 0 0 68.54,38 v 0 a 9.81,9.81 0 0 0 -11.78,0 z"
         id="path3744"
         style="fill:#ffffff;fill-opacity:1" />
    </g>
  </g>
</svg>
